<?xml version="1.0" encoding="UTF-8" standalone="no"?> <!-- Created with Vectornator for iOS (http://vectornator.io/) --><!DOCTYPE svg PUBLIC "-//W3C//DTD SVG 1.1//EN" "http://www.w3.org/Graphics/SVG/1.1/DTD/svg11.dtd">
<svg height="100%" style="fill-rule:evenodd;clip-rule:evenodd;stroke-linecap:round;stroke-linejoin:round;" xmlns:xlink="http://www.w3.org/1999/xlink" xmlns="http://www.w3.org/2000/svg" xml:space="preserve" width="100%" xmlns:vectornator="http://vectornator.io" version="1.1" viewBox="0 0 1485.39 726.312">
<metadata>
<vectornator:setting key="DimensionsVisible" value="0"/>
<vectornator:setting key="PencilOnly" value="0"/>
<vectornator:setting key="SnapToPoints" value="0"/>
<vectornator:setting key="OutlineMode" value="0"/>
<vectornator:setting key="CMYKEnabledKey" value="0"/>
<vectornator:setting key="RulersVisible" value="1"/>
<vectornator:setting key="SnapToEdges" value="0"/>
<vectornator:setting key="GuidesVisible" value="0"/>
<vectornator:setting key="DisplayWhiteBackground" value="0"/>
<vectornator:setting key="doHistoryDisabled" value="0"/>
<vectornator:setting key="SnapToGuides" value="1"/>
<vectornator:setting key="TimeLapseWatermarkDisabled" value="0"/>
<vectornator:setting key="Units" value="Points"/>
<vectornator:setting key="DynamicGuides" value="1"/>
<vectornator:setting key="IsolateActiveLayer" value="0"/>
<vectornator:setting key="SnapToGrid" value="0"/>
</metadata>
<defs/>
<g id="Untitled" vectornator:layerName="Untitled">
<path d="M37.5938+707.6C64.0163+726.635+98.2579+727.591+131.356+725.252C135.978+724.926+140.567+724.544+145.113+724.131C145.141+724.124+145.177+724.126+145.205+724.119C145.423+724.098+145.642+724.077+145.851+724.065C146.79+723.977+147.729+723.89+148.658+723.801L148.439+724.22L147.749+725.52C147.997+725.085+148.245+724.659+148.492+724.224C148.565+724.093+148.647+723.963+148.719+723.833C157.293+708.912+165.798+693.443+167.967+676.405C170.209+658.721+163.908+638.696+148.343+630.004C146.302+628.867+144.14+627.962+141.898+627.305C140.967+627.022+140.024+626.792+139.07+626.589C127.184+623.95+114.8+627.934+106.682+637.008C98.5649+646.082+95.9793+658.832+99.9205+670.351C86.7247+656.82+89.1863+634.869+93.7382+616.524C98.2989+598.179+103.82+577.765+94.544+561.288C89.3876+552.116+80.3197+546.426+70.1433+544.133C69.8312+544.066+69.5194+543.999+69.2066+543.941C57.0818+541.485+44.4767+543.693+33.9092+550.125C14.4511+562.387+4.45722+585.636+1.21362+608.41C-4.01244+645.057+7.5529+685.957+37.5938+707.6Z" fill-rule="evenodd" fill="#f2f2f2" opacity="1"/>
<path d="M46.1246+648.853C46.8917+656.937+48.8335+664.865+51.8888+672.389C54.7045+679.046+58.4997+685.245+63.1485+690.78C72.6451+702.204+85.2022+710.793+98.8395+716.515C109.267+720.786+120.192+723.722+131.356+725.252C135.978+724.926+140.567+724.544+145.113+724.131C145.141+724.124+145.177+724.126+145.205+724.119C145.423+724.098+145.642+724.077+145.851+724.065C146.79+723.977+147.729+723.89+148.658+723.801L148.439+724.22L147.749+725.52C147.997+725.085+148.245+724.659+148.492+724.224C148.565+724.093+148.647+723.963+148.719+723.833C131.736+706.912+124.014+682.807+128.002+659.168C130.059+647.6+134.82+636.682+141.898+627.305C140.967+627.022+140.024+626.792+139.07+626.589C136.38+630.267+134.02+634.175+132.019+638.268C124.837+652.865+122.545+669.387+125.484+685.388C128.216+699.867+135.022+713.266+145.104+724.012C144.221+723.95+143.33+723.878+142.457+723.799C125.936+722.399+109.448+718.847+94.4623+711.572C81.6532+705.504+70.5327+696.379+62.0803+685.002C53.0046+672.485+49.0055+657.43+48.3185+642.128C47.59+625.746+49.7157+609.076+53.4543+593.144C57.2718+576.812+63.0736+561.008+70.7303+546.085C71.0859+545.382+70.8277+544.524+70.1434+544.133C69.8687+543.948+69.5321+543.879+69.2066+543.941C68.884+544.026+68.6179+544.254+68.4841+544.56C67.5395+546.403+66.6125+548.248+65.7208+550.113C58.2941+565.651+52.8264+582.051+49.4433+598.936C46.159+615.225+44.406+632.265+46.1246+648.853Z" fill-rule="evenodd" fill="#ffffff" opacity="1"/>
<path d="M162.64+393.908C162.64+377.34+176.072+363.908+192.64+363.908C209.209+363.908+222.64+377.34+222.64+393.908C222.64+410.477+209.209+423.908+192.64+423.908C176.072+423.908+162.64+410.477+162.64+393.908Z" fill-rule="evenodd" fill="#2f2e41" opacity="1"/>
<path d="M170.599+399.405C170.599+385.84+181.595+374.843+195.16+374.843C208.725+374.843+219.721+385.84+219.721+399.405C219.721+412.969+208.725+423.966+195.16+423.966C181.595+423.966+170.599+412.969+170.599+399.405Z" fill-rule="evenodd" fill="#ffb8b8" opacity="1"/>
<path d="M288.699+474.11C288.309+474.502+287.95+474.925+287.626+475.374L238.064+473.622L232.395+462.991L215.233+469.45L223.439+489.245C224.801+492.53+228.168+494.522+231.703+494.134L287.787+487.976C290.455+491.43+294.982+492.873+299.157+491.599C303.332+490.326+306.283+486.602+306.569+482.247C306.855+477.892+304.417+473.814+300.445+472.005C296.473+470.197+291.796+471.035+288.699+474.11Z" fill-rule="evenodd" fill="#ffb8b8" opacity="1"/>
<path d="M208.631+479.008C207.353+478.435+206.388+477.333+205.989+475.991L199.085+452.822C195.964+446.141+198.837+438.194+205.509+435.055C212.181+431.915+220.136+434.767+223.294+441.43L236.666+461.665C237.438+462.834+237.663+464.28+237.283+465.628C236.903+466.976+235.954+468.092+234.685+468.685L212.643+478.978C211.374+479.572+209.909+479.583+208.631+479.008Z" fill-rule="evenodd" fill="#cccccc" opacity="1"/>
<path d="M257.446+714.239L268.214+708.377L250.729+664.055L234.837+672.706L257.446+714.239Z" fill-rule="evenodd" fill="#ffb8b8" opacity="1"/>
<path d="M252.786+712.219L273.992+700.675L273.992+700.675C281.456+696.612+290.8+699.369+294.862+706.833L295.101+707.272L260.382+726.172L252.786+712.219Z" fill-rule="evenodd" fill="#2f2e41" opacity="1"/>
<path d="M138.959+714.287L151.218+714.287L157.051+666.999L138.956+667L138.959+714.287Z" fill-rule="evenodd" fill="#ffb8b8" opacity="1"/>
<path d="M135.831+710.285L159.975+710.284L159.976+710.284C168.474+710.284+175.363+717.173+175.363+725.67L175.363+726.17L135.832+726.172L135.831+710.285Z" fill-rule="evenodd" fill="#2f2e41" opacity="1"/>
<path d="M215.14+504.408L219.14+552.408L263.759+686.264C264.114+687.329+264.005+688.493+263.46+689.474C262.914+690.454+261.982+691.16+260.891+691.42L247.216+694.676C245.413+695.106+243.551+694.24+242.717+692.586L185.673+579.433C185.292+578.677+184.477+578.243+183.637+578.349C182.798+578.455+182.115+579.078+181.934+579.904L156.83+694.266C156.427+696.101+154.802+697.408+152.923+697.408L140.201+697.408C139.131+697.41+138.105+696.981+137.354+696.219C136.602+695.457+136.188+694.425+136.205+693.354C137.37+614.058+133.525+523.701+164.14+509.408L169.14+496.408L215.14+504.408Z" fill-rule="evenodd" fill="#2f2e41" opacity="1"/>
<path d="M167.7+499.813L162.545+468.635C160.811+458.245+164.493+447.687+172.313+440.629C179.958+433.639+190.638+431.029+200.645+433.704C200.937+433.782+201.229+433.864+201.522+433.946C213.932+437.499+222.807+448.417+223.75+461.291C224.734+474.831+223.853+494.475+214.072+511.161L213.882+511.486L167.7+499.813Z" fill-rule="evenodd" fill="#cccccc" opacity="1"/>
<path d="M219.593+386.351C213.981+390.219+207.319+392.278+200.502+392.251C202.934+393.936+205.702+395.075+208.616+395.589C199.553+397.533+190.186+397.585+181.102+395.743C179.083+395.419+177.134+394.75+175.342+393.765C173.536+392.756+172.244+391.028+171.787+389.01C171.184+385.562+173.871+382.429+176.663+380.317C185.321+373.87+196.417+371.653+206.888+374.277C210.264+375.15+213.646+376.625+215.839+379.336C218.032+382.047+218.682+386.228+216.592+389.02L219.593+386.351Z" fill-rule="evenodd" fill="#2f2e41" opacity="1"/>
<path d="M192.245+363.76C195.092+352.265+184.888+339.492+173.047+339.732C161.034+339.974+152.194+350.83+146.117+361.196C140.04+371.562+134+383.312+122.844+387.775C115.345+390.775+106.84+389.807+100.207+385.198C93.5746+380.589+89.7012+372.956+89.8977+364.881C88.3998+377.474+90.475+391.1+98.5965+400.841C106.718+410.581+121.83+414.971+132.692+408.425C138.895+404.686+142.861+398.188+146.13+391.724C149.399+385.261+152.307+378.445+157.261+373.161C162.214+367.876+169.873+364.369+176.766+366.592C179.503+367.475+181.958+369.195+184.785+369.719C187.612+370.242+191.171+368.898+191.557+366.049L192.245+363.76Z" fill-rule="evenodd" fill="#2f2e41" opacity="1"/>
<path d="M133.049+572.203C130.985+569.785+130.099+566.576+130.628+563.441C131.157+560.307+133.048+557.567+135.791+555.96L157.097+460.463L178.709+469.334L150.971+560.415C153.418+565.31+151.818+571.262+147.246+574.269C142.673+577.277+136.574+576.389+133.049+572.203Z" fill-rule="evenodd" fill="#ffb8b8" opacity="1"/>
<path d="M148.655+474.163C147.967+472.943+147.844+471.484+148.319+470.166L156.512+447.421C157.963+440.191+164.992+435.5+172.225+436.932C179.459+438.365+184.169+445.38+182.757+452.618L181.512+476.84C181.44+478.239+180.763+479.537+179.657+480.396C178.551+481.256+177.125+481.591+175.752+481.315L151.902+476.519C150.528+476.244+149.343+475.384+148.655+474.163Z" fill-rule="evenodd" fill="#cccccc" opacity="1"/>
<path d="M323.215+463.453L322.86+463.404L324.197+453.681C324.624+450.573+322.451+447.708+319.343+447.28L298.743+444.449C295.635+444.021+292.769+446.195+292.342+449.303L285.01+502.643C284.582+505.751+286.756+508.617+289.863+509.044L310.463+511.876C313.571+512.303+316.437+510.13+316.864+507.022L321.909+470.325L322.264+470.374L323.215+463.453Z" fill-rule="evenodd" fill="#3f3d56" opacity="1"/>
<path d="M318.695+450.133L316.13+449.78C316.289+450.4+316.129+451.059+315.703+451.537C315.277+452.015+314.641+452.249+314.006+452.162L302.75+450.614C302.116+450.527+301.567+450.13+301.285+449.555C301.004+448.98+301.027+448.302+301.347+447.748L298.952+447.419C296.738+447.115+294.697+448.663+294.392+450.876L287.408+501.681C287.104+503.894+288.652+505.936+290.866+506.24L310.609+508.954C312.823+509.258+314.864+507.71+315.169+505.497L315.169+505.497L322.153+454.692C322.457+452.478+320.909+450.437+318.695+450.133Z" fill-rule="evenodd" fill="#ffffff" opacity="1"/>
<path d="M293.693+481.312C293.693+475.237+298.618+470.312+304.693+470.312C310.768+470.312+315.693+475.237+315.693+481.312C315.693+487.388+310.768+492.312+304.693+492.312C298.618+492.312+293.693+487.388+293.693+481.312Z" fill-rule="evenodd" fill="#6c63ff" opacity="1"/>
<path d="M303.603+485.509C303.355+485.509+303.114+485.429+302.916+485.281L302.904+485.271L300.319+483.292C299.992+483.043+299.823+482.638+299.876+482.231C299.929+481.823+300.195+481.475+300.575+481.317C300.955+481.16+301.39+481.218+301.716+481.469L303.39+482.753L307.347+477.592C307.733+477.089+308.454+476.994+308.957+477.38L308.933+477.413L308.958+477.38C309.461+477.767+309.556+478.487+309.171+478.991L304.516+485.06C304.298+485.344+303.96+485.51+303.603+485.509Z" fill-rule="evenodd" fill="#ffffff" opacity="1"/>
<path d="M406.075+726.312L25.0748+726.312C24.5225+726.312+24.0748+725.865+24.0748+725.312C24.0748+724.76+24.5225+724.312+25.0748+724.312L406.075+724.312C406.627+724.312+407.075+724.76+407.075+725.312C407.075+725.865+406.627+726.312+406.075+726.312Z" fill-rule="evenodd" fill="#3f3d56" opacity="1"/>
</g>
</svg>
