<?xml version="1.0" encoding="iso-8859-1"?>
<!-- Generator: Adobe Illustrator 19.0.0, SVG Export Plug-In . SVG Version: 6.00 Build 0)  -->
<svg version="1.1" id="Capa_1" xmlns="http://www.w3.org/2000/svg" xmlns:xlink="http://www.w3.org/1999/xlink" x="0px" y="0px"
	 viewBox="0 0 512 512" style="enable-background:new 0 0 512 512;" xml:space="preserve">
<g>
	<path style="fill:#FF5A51;" d="M164.829,412.588H6c-3.314,0-6-2.686-6-6v-35.213h164.829V412.588z"/>
	<path style="fill:#FF5A51;" d="M506,412.588H347.171v-41.213H512v35.213C512,409.901,509.314,412.588,506,412.588z"/>
</g>
<g>
	<path style="fill:#A85759;" d="M506,412.588h-24.905v-41.213H512v35.213C512,409.901,509.314,412.588,506,412.588z"/>
	<path style="fill:#A85759;" d="M365.38,467H146.62c-3.314,0-6-2.686-6-6v-35.182h230.76V461C371.38,464.314,368.694,467,365.38,467
		z"/>
</g>
<path style="fill:#53575D;" d="M365.38,467h-24.905v-41.182h30.905V461C371.38,464.314,368.694,467,365.38,467z"/>
<circle style="fill:#FFD681;" cx="82.41" cy="163.8" r="48.934"/>
<path style="fill:#FF993B;" d="M164.829,377.561H0v-82.415c0-45.516,36.898-82.414,82.414-82.414l0,0
	c45.516,0,82.414,36.898,82.414,82.414L164.829,377.561L164.829,377.561z"/>
<path style="fill:#FF7B48;" d="M82.414,212.732L82.414,212.732c-5.284,0-10.445,0.518-15.453,1.468
	c38.127,7.236,66.962,40.715,66.962,80.947v82.414h30.905v-82.414C164.829,249.631,127.931,212.732,82.414,212.732z"/>
<circle style="fill:#FFD681;" cx="429.59" cy="163.8" r="48.934"/>
<path style="fill:#FF993B;" d="M512,377.561H347.171v-82.415c0-45.516,36.898-82.414,82.414-82.414l0,0
	c45.516,0,82.414,36.898,82.414,82.414v82.415H512z"/>
<path style="fill:#FF7B48;" d="M429.586,212.732L429.586,212.732c-5.284,0-10.445,0.518-15.453,1.468
	c38.127,7.236,66.962,40.715,66.962,80.947v82.414H512v-82.414C512,249.631,475.102,212.732,429.586,212.732z"/>
<g>
	<path style="fill:#FFBD2A;" d="M106.522,273.513H58.307c-3.05,0-4.978,3.276-3.497,5.943l24.107,43.393
		c1.524,2.743,5.469,2.743,6.993,0l24.107-43.393C111.5,276.79,109.572,273.513,106.522,273.513z"/>
	<path style="fill:#FFBD2A;" d="M453.693,273.513h-48.215c-3.05,0-4.978,3.276-3.497,5.943l24.107,43.393
		c1.524,2.743,5.469,2.743,6.993,0l24.107-43.393C458.671,276.79,456.743,273.513,453.693,273.513z"/>
</g>
<path style="fill:#FF5A51;" d="M371.38,432.005H140.62V316.778c0-63.694,51.635-115.329,115.329-115.329h0.102
	c63.694,0,115.329,51.635,115.329,115.329V432.005z"/>
<path style="fill:#E75955;" d="M256,201.449L256,201.449c-5.241,0-10.398,0.356-15.453,1.032
	c56.415,7.545,99.928,55.815,99.928,114.246v115.278h30.905V316.727C371.38,253.06,319.723,201.449,256,201.449z"/>
<path style="fill:#FFBD2A;" d="M218.234,397.926l-42.268,7.668c-1.319,0.237-2.545-0.154-3.431-0.926v-0.01
	c-1.03-0.886-1.597-2.285-1.319-3.809l7.675-42.221l17.482,17.467h0.01L218.234,397.926z"/>
<path style="fill:#FFD681;" d="M315.112,293.854l-32.052-32.023l5.842-5.837c8.845-8.837,23.178-8.837,32.023,0l0,0
	c8.856,8.849,8.856,23.203,0,32.052L315.112,293.854z"/>
<path style="fill:#FFBD2A;" d="M320.94,256.008L320.94,256.008c-4.37-4.366-10.08-6.567-15.808-6.622
	c0.056,5.868-2.147,11.752-6.628,16.23l-5.828,5.822l22.436,22.415l5.827-5.822C329.791,279.189,329.791,264.851,320.94,256.008z"/>
<polygon style="fill:#FFD681;" points="300.041,316.187 218.229,397.929 178.893,358.628 260.704,276.887 "/>
<g>
	<polygon style="fill:#FFBD2A;" points="300.041,316.187 218.229,397.929 196.376,376.095 278.187,294.354 	"/>
	<path style="fill:#FFBD2A;" d="M318.108,302.506l-16.194,16.18c-1.562,1.56-4.093,1.56-5.654,0l-38.048-38.014
		c-1.564-1.562-1.564-4.097,0-5.659l16.194-16.18c1.562-1.56,4.093-1.56,5.654,0l38.048,38.014
		C319.672,298.409,319.672,300.944,318.108,302.506z"/>
</g>
<g>
	<path style="fill:#FF993B;" d="M318.108,302.506l-16.194,16.18c-1.562,1.56-4.093,1.56-5.654,0l-19.026-19.009l21.853-21.834
		l19.021,19.004C319.672,298.409,319.672,300.944,318.108,302.506z"/>
	<path style="fill:#FF993B;" d="M218.234,397.926l-42.268,7.668c-1.319,0.237-2.545-0.154-3.431-0.926v-0.01l23.838-28.562h0.01
		L218.234,397.926z"/>
</g>
<circle style="fill:#FFD681;" cx="256" cy="123" r="78"/>
<g>
</g>
<g>
</g>
<g>
</g>
<g>
</g>
<g>
</g>
<g>
</g>
<g>
</g>
<g>
</g>
<g>
</g>
<g>
</g>
<g>
</g>
<g>
</g>
<g>
</g>
<g>
</g>
<g>
</g>
</svg>
